<?xml version="1.0" encoding="UTF-8"?><!DOCTYPE svg PUBLIC "-//W3C//DTD SVG 1.1//EN" "http://www.w3.org/Graphics/SVG/1.1/DTD/svg11.dtd"><svg xmlns="http://www.w3.org/2000/svg"><symbol id="ico-check" viewBox="0 0 44 44">
    <path d="M22 0C9.8 0 0 9.8 0 22s9.8 22 22 22 22-9.8 22-22S34.2 0 22 0zm12.7 15.1l-16 16.6c-.2.2-.4.3-.7.3-.3 0-.6-.1-.7-.3l-7.8-8.4-.2-.2c-.2-.2-.3-.5-.3-.7s.1-.5.3-.7l1.4-1.4c.4-.4 1-.4 1.4 0l.1.1 5.5 5.9c.2.2.5.2.7 0l13.4-13.9h.1c.4-.4 1-.4 1.4 0l1.4 1.4c.4.3.4.9 0 1.3z"/>
</symbol><symbol id="ico-upload" viewBox="0 0 56 56">
    <path d="M37 36.5a2 2 0 0 0 1.414-3.414l-7.999-7.999a1.988 1.988 0 0 0-.306-.25c-.05-.034-.105-.057-.158-.086-.062-.034-.121-.071-.186-.098-.067-.028-.137-.044-.206-.064-.056-.017-.11-.038-.168-.05a1.99 1.99 0 0 0-.784 0c-.058.011-.112.033-.168.05-.069.02-.138.036-.205.064-.066.027-.125.065-.187.099-.052.029-.107.052-.157.085-.11.073-.213.157-.306.25l-7.999 7.999a2 2 0 1 0 2.829 2.828L27 31.328V49.5a2 2 0 0 0 4 0V31.328l4.586 4.586c.39.391.902.586 1.414.586z"/>
    <path d="M47.835 20.486c-.137-.019-2.457-.335-4.684.002a.999.999 0 0 1-1.139-.838 1 1 0 0 1 .838-1.139c1.531-.233 3.062-.196 4.083-.124C46.262 10.635 39.83 4.5 32.085 4.5c-4.697 0-9.418 2.379-12.285 6.129A8.98 8.98 0 0 1 23 17.5a1 1 0 1 1-2 0 6.997 6.997 0 0 0-3.911-6.272c-.069-.034-.139-.069-.21-.101a6.812 6.812 0 0 0-.835-.321c-.035-.01-.071-.017-.106-.027a7.031 7.031 0 0 0-1.022-.213A7.142 7.142 0 0 0 14 10.5c-3.859 0-7 3.141-7 7 0 .082.006.163.012.244l.012.21-.009.16c-.007.13-.015.259-.015.386v.63l-.567.271C2.705 21.188 0 25.5 0 29.654 0 35.635 4.865 40.5 10.845 40.5h14.184v-4.343l-1.171 1.171c-.781.781-1.805 1.172-2.829 1.172s-2.047-.391-2.829-1.172a4 4 0 0 1 0-5.656l8-8c.186-.186.391-.352.61-.499.098-.065.205-.111.307-.167.126-.069.248-.146.382-.201.132-.055.27-.086.406-.126.114-.033.223-.077.34-.101a4.012 4.012 0 0 1 1.567 0c.118.023.227.067.34.101.136.04.274.071.406.126.134.056.256.132.382.201.102.056.209.101.307.167.219.146.424.313.61.499l8 8a4 4 0 1 1-5.658 5.656l-1.171-1.171V40.5h2.324c.059 0 .116-.005.174-.009l.198-.011.271.011c.058.004.115.009.174.009h9.803C51.501 40.5 56 36.001 56 30.472c0-4.811-3.51-9.1-8.165-9.986z"/>
</symbol></svg>