<?xml version="1.0" encoding="UTF-8"?><!DOCTYPE svg PUBLIC "-//W3C//DTD SVG 1.1//EN" "http://www.w3.org/Graphics/SVG/1.1/DTD/svg11.dtd"><svg xmlns="http://www.w3.org/2000/svg"><symbol id="ico-check" viewBox="0 0 44 44">
    <path d="M22 0C9.8 0 0 9.8 0 22s9.8 22 22 22 22-9.8 22-22S34.2 0 22 0zm12.7 15.1l-16 16.6c-.2.2-.4.3-.7.3-.3 0-.6-.1-.7-.3l-7.8-8.4-.2-.2c-.2-.2-.3-.5-.3-.7s.1-.5.3-.7l1.4-1.4c.4-.4 1-.4 1.4 0l.1.1 5.5 5.9c.2.2.5.2.7 0l13.4-13.9h.1c.4-.4 1-.4 1.4 0l1.4 1.4c.4.3.4.9 0 1.3z"/>
</symbol><symbol id="ico-i-move" viewBox="0 0 476.737 476.737">
    <path d="M475.498 232.298l-3.401-5.149-63.565-63.565c-6.198-6.198-16.304-6.198-22.47 0-6.198 6.198-6.198 16.273 0 22.47l36.423 36.423H254.26V54.253l36.423 36.423c6.166 6.198 16.273 6.198 22.47 0 6.166-6.198 6.166-16.273 0-22.47L249.588 4.64l-.159-.095-4.99-3.305-6.07-1.24h-.064l-6.007 1.24-4.99 3.305-.191.095-63.565 63.565c-6.198 6.198-6.198 16.273 0 22.47s16.273 6.198 22.47 0l36.455-36.423v168.225H54.253l36.423-36.423c6.198-6.198 6.198-16.273 0-22.47s-16.273-6.198-22.47 0L4.64 227.149l-.095.159-3.305 4.99L0 238.369v.064l1.24 6.007 3.305 4.958.095.191 63.565 63.565c6.198 6.198 16.273 6.198 22.47 0 6.198-6.166 6.198-16.273 0-22.47L54.253 254.26h168.225v168.225l-36.423-36.423c-6.198-6.166-16.273-6.166-22.47 0-6.198 6.198-6.198 16.304 0 22.47l63.565 63.565 5.149 3.432 6.007 1.208h.064l6.07-1.24 5.149-3.401 63.565-63.565c6.166-6.198 6.166-16.304 0-22.47-6.198-6.198-16.304-6.198-22.47 0l-36.423 36.423V254.26h168.225l-36.423 36.423c-6.166 6.166-6.166 16.273 0 22.47 6.198 6.166 16.304 6.166 22.47 0l63.565-63.565 3.432-5.149 1.208-6.007v-.064l-1.24-6.07z"/>
</symbol><symbol id="ico-i-share" viewBox="0 0 55 55">
    <path d="M49 0c-3.309 0-6 2.691-6 6 0 1.035.263 2.009.726 2.86l-9.829 9.829a7.943 7.943 0 0 0-9.795-.001l-7.669-7.669A3.947 3.947 0 0 0 17 9c0-2.206-1.794-4-4-4S9 6.794 9 9s1.794 4 4 4c.74 0 1.424-.215 2.019-.567l7.669 7.669a7.953 7.953 0 0 0 0 9.795L10.024 42.562A5.971 5.971 0 0 0 6 41c-3.309 0-6 2.691-6 6s2.691 6 6 6 6-2.691 6-6a5.966 5.966 0 0 0-.726-2.86l12.829-12.829a7.953 7.953 0 0 0 3.898 1.619v10.16c-2.833.478-5 2.942-5 5.91 0 3.309 2.691 6 6 6s6-2.691 6-6c0-2.967-2.167-5.431-5-5.91V32.93a7.953 7.953 0 0 0 3.898-1.619l7.669 7.669A3.945 3.945 0 0 0 41 41c0 2.206 1.794 4 4 4s4-1.794 4-4-1.794-4-4-4c-.74 0-1.424.215-2.019.567l-7.669-7.669a7.953 7.953 0 0 0 0-9.795l9.665-9.665A5.967 5.967 0 0 0 49 12c3.309 0 6-2.691 6-6s-2.691-6-6-6zM11 9c0-1.103.897-2 2-2s2 .897 2 2-.897 2-2 2-2-.897-2-2zM6 51c-2.206 0-4-1.794-4-4s1.794-4 4-4 4 1.794 4 4-1.794 4-4 4zm27-2c0 2.206-1.794 4-4 4s-4-1.794-4-4 1.794-4 4-4 4 1.794 4 4zm-4-18c-3.309 0-6-2.691-6-6s2.691-6 6-6 6 2.691 6 6-2.691 6-6 6zm18 10c0 1.103-.897 2-2 2s-2-.897-2-2 .897-2 2-2 2 .897 2 2zm2-31c-2.206 0-4-1.794-4-4s1.794-4 4-4 4 1.794 4 4-1.794 4-4 4z"/>
</symbol><symbol id="ico-i-user" viewBox="0 0 489.7 489.7">
    <circle cx="244.9" cy="47" r="37.8"/>
    <circle cx="417.3" cy="343.3" r="37.8"/>
    <circle cx="72.5" cy="343.3" r="37.8"/>
    <path d="M464.2 146.5c0-25.9-21-46.9-46.9-46.9-14.1 0-26.7 6.2-35.3 16.1L289.3 62c1.6-4.7 2.5-9.8 2.5-15.1 0-25.9-21-46.9-46.9-46.9S198 21 198 46.9c0 5.3.9 10.3 2.5 15l-92.7 53.7c-8.6-9.8-21.2-16.1-35.3-16.1-25.9 0-46.9 21-46.9 46.9 0 22.4 15.8 41.2 36.8 45.8l.1 105.2c-21.1 4.6-37 23.4-37 45.8 0 25.9 21 46.9 46.9 46.9 13.8 0 26.2-6 34.8-15.5l93 53.7c-1.5 4.6-2.3 9.4-2.3 14.5 0 25.9 21 46.9 46.9 46.9s46.9-21 46.9-46.9c0-5.1-.8-9.9-2.3-14.5l93-53.7c8.6 9.5 21 15.5 34.8 15.5 25.9 0 46.9-21 46.9-46.9 0-22.7-16.3-41.8-37.8-46V192.4c21.6-4.1 37.9-23.1 37.9-45.9zm-46.9-28.8c15.9 0 28.8 12.9 28.8 28.8s-12.9 28.8-28.8 28.8-28.8-12.9-28.8-28.8 13-28.8 28.8-28.8zM244.9 18.2c15.9 0 28.8 12.9 28.8 28.8 0 4.9-1.2 9.5-3.4 13.6-.2.2-.3.4-.5.7l-.3.6c-5 8.3-14.2 13.9-24.6 13.9-15.9 0-28.8-12.9-28.8-28.8s12.9-28.8 28.8-28.8zM43.7 146.5c0-15.9 12.9-28.8 28.8-28.8s28.8 12.9 28.8 28.8-12.9 28.8-28.8 28.8-28.8-12.9-28.8-28.8zm28.8 225.6c-15.9 0-28.8-12.9-28.8-28.8s12.9-28.8 28.8-28.8 28.8 12.9 28.8 28.8c-.1 15.9-13 28.8-28.8 28.8zm172.4 99.5c-15.9 0-28.8-12.9-28.8-28.8S229 414 244.9 414s28.8 12.9 28.8 28.8-12.9 28.8-28.8 28.8zm35.7-59.1c-8.6-10.1-21.4-16.6-35.7-16.6s-27.1 6.4-35.7 16.6l-92.6-53.4c1.8-4.9 2.8-10.3 2.8-15.8 0-23.1-16.7-42.3-38.7-46.2l-.1-104.5c22-3.8 38.8-23.1 38.8-46.2 0-5.3-.9-10.4-2.5-15.1l92.7-53.7c8.6 9.9 21.3 16.1 35.4 16.1 14.1 0 26.7-6.2 35.3-16.1l92.7 53.7c-1.6 4.7-2.5 9.8-2.5 15.1 0 22.7 16.3 41.8 37.8 46v104.8c-21.5 4.2-37.8 23.2-37.8 46 0 5.6 1 10.9 2.8 15.8l-92.7 53.5zm165.5-69.2c0 15.9-12.9 28.8-28.8 28.8s-28.8-12.9-28.8-28.8 12.9-28.8 28.8-28.8 28.8 12.9 28.8 28.8z"/>
    <path d="M288.6 281.1v-32.7c5.5-5.3 8.6-12.6 8.6-20.4v-42.9c0-26.3-21.4-47.7-47.7-47.7h-9.2c-26.3 0-47.7 21.4-47.7 47.7V228c0 7.8 3.2 15.1 8.6 20.4v32.7c-10.4 5.4-35.4 19.1-58.8 38.3-3.9 3.2-4.4 8.9-1.2 12.8s8.9 4.4 12.8 1.2c25.9-21.3 53.9-35.4 59.3-38 3.8-1.9 6.1-5.6 6.1-9.9v-41.4c0-3-1.5-5.9-4-7.5-2.9-1.9-4.6-5.1-4.6-8.6v-42.9c0-16.3 13.3-29.6 29.6-29.6h9.2c16.3 0 29.6 13.3 29.6 29.6V228c0 3.4-1.7 6.6-4.6 8.6-2.5 1.7-4 4.5-4 7.5v41.4c0 4.2 2.4 8 6.2 9.9 5.4 2.6 33.4 16.8 59.3 38 1.7 1.4 3.7 2.1 5.7 2.1 2.6 0 5.2-1.1 7-3.3 3.2-3.9 2.6-9.6-1.2-12.8-23.6-19.2-48.6-33-59-38.3z"/>
</symbol><symbol id="ico-upload" viewBox="0 0 56 56">
    <path d="M37 36.5a2 2 0 0 0 1.414-3.414l-7.999-7.999a1.988 1.988 0 0 0-.306-.25c-.05-.034-.105-.057-.158-.086-.062-.034-.121-.071-.186-.098-.067-.028-.137-.044-.206-.064-.056-.017-.11-.038-.168-.05a1.99 1.99 0 0 0-.784 0c-.058.011-.112.033-.168.05-.069.02-.138.036-.205.064-.066.027-.125.065-.187.099-.052.029-.107.052-.157.085-.11.073-.213.157-.306.25l-7.999 7.999a2 2 0 1 0 2.829 2.828L27 31.328V49.5a2 2 0 0 0 4 0V31.328l4.586 4.586c.39.391.902.586 1.414.586z"/>
    <path d="M47.835 20.486c-.137-.019-2.457-.335-4.684.002a.999.999 0 0 1-1.139-.838 1 1 0 0 1 .838-1.139c1.531-.233 3.062-.196 4.083-.124C46.262 10.635 39.83 4.5 32.085 4.5c-4.697 0-9.418 2.379-12.285 6.129A8.98 8.98 0 0 1 23 17.5a1 1 0 1 1-2 0 6.997 6.997 0 0 0-3.911-6.272c-.069-.034-.139-.069-.21-.101a6.812 6.812 0 0 0-.835-.321c-.035-.01-.071-.017-.106-.027a7.031 7.031 0 0 0-1.022-.213A7.142 7.142 0 0 0 14 10.5c-3.859 0-7 3.141-7 7 0 .082.006.163.012.244l.012.21-.009.16c-.007.13-.015.259-.015.386v.63l-.567.271C2.705 21.188 0 25.5 0 29.654 0 35.635 4.865 40.5 10.845 40.5h14.184v-4.343l-1.171 1.171c-.781.781-1.805 1.172-2.829 1.172s-2.047-.391-2.829-1.172a4 4 0 0 1 0-5.656l8-8c.186-.186.391-.352.61-.499.098-.065.205-.111.307-.167.126-.069.248-.146.382-.201.132-.055.27-.086.406-.126.114-.033.223-.077.34-.101a4.012 4.012 0 0 1 1.567 0c.118.023.227.067.34.101.136.04.274.071.406.126.134.056.256.132.382.201.102.056.209.101.307.167.219.146.424.313.61.499l8 8a4 4 0 1 1-5.658 5.656l-1.171-1.171V40.5h2.324c.059 0 .116-.005.174-.009l.198-.011.271.011c.058.004.115.009.174.009h9.803C51.501 40.5 56 36.001 56 30.472c0-4.811-3.51-9.1-8.165-9.986z"/>
</symbol></svg>